<svg xmlns="http://www.w3.org/2000/svg" width="627.2" height="627.2" viewBox="0 0 588 588"><g transform="translate(757.916 5.705)"><circle style="opacity:1;fill:#00f;fill-opacity:1;stroke:#f9f9f9;stroke-width:.24965125;stroke-linecap:round;stroke-linejoin:bevel;stroke-miterlimit:4;stroke-dasharray:none;stroke-dashoffset:0;stroke-opacity:1" cx="-463.916" cy="288.295" r="293.875"/><g style="fill:#fff"><g style="fill:#fff"><path style="opacity:1;fill:#fff;fill-opacity:1;stroke:none;stroke-width:4;stroke-linecap:round;stroke-linejoin:bevel;stroke-miterlimit:4;stroke-dasharray:none;stroke-dashoffset:0;stroke-opacity:1" d="M-346.265 531.043A145.714 145.714 0 0 1-537.297 473.6a145.714 145.714 0 0 1 44.026-193.155 145.714 145.714 0 0 0-8.011 4.105 145.714 145.714 0 0 0-53.335 199.05 145.714 145.714 0 0 0 199.049 53.333 145.714 145.714 0 0 0 9.303-5.89z" transform="translate(9.552 11.6)"/><path d="M-327.082 516.269a142.5 145.714 60 0 1-189.43-54.67 142.5 145.714 60 0 1 45.628-190.38 142.5 145.714 60 0 0-8.007 4.114A142.5 145.714 60 0 0-533.833 471.6a142.5 145.714 60 0 0 197.442 50.55 142.5 145.714 60 0 0 9.309-5.881z" style="opacity:1;fill:#fff;fill-opacity:1;stroke:none;stroke-width:4;stroke-linecap:round;stroke-linejoin:bevel;stroke-miterlimit:4;stroke-dasharray:none;stroke-dashoffset:0;stroke-opacity:1" transform="translate(9.552 11.6)"/></g><g style="fill:#fff"><path d="M-346.265 531.043A145.714 145.714 0 0 1-537.297 473.6a145.714 145.714 0 0 1 44.026-193.155 145.714 145.714 0 0 0-8.011 4.105 145.714 145.714 0 0 0-53.335 199.05 145.714 145.714 0 0 0 199.049 53.333 145.714 145.714 0 0 0 9.303-5.89z" style="opacity:1;fill:#fff;fill-opacity:1;stroke:none;stroke-width:4;stroke-linecap:round;stroke-linejoin:bevel;stroke-miterlimit:4;stroke-dasharray:none;stroke-dashoffset:0;stroke-opacity:1" transform="rotate(-120 -465.344 279.738)"/><path style="opacity:1;fill:#fff;fill-opacity:1;stroke:none;stroke-width:4;stroke-linecap:round;stroke-linejoin:bevel;stroke-miterlimit:4;stroke-dasharray:none;stroke-dashoffset:0;stroke-opacity:1" d="M-327.082 516.269a142.5 145.714 60 0 1-189.43-54.67 142.5 145.714 60 0 1 45.628-190.38 142.5 145.714 60 0 0-8.007 4.114A142.5 145.714 60 0 0-533.833 471.6a142.5 145.714 60 0 0 197.442 50.55 142.5 145.714 60 0 0 9.309-5.881z" transform="rotate(-120 -465.344 279.738)"/></g><g style="fill:#fff"><path style="opacity:1;fill:#fff;fill-opacity:1;stroke:none;stroke-width:4;stroke-linecap:round;stroke-linejoin:bevel;stroke-miterlimit:4;stroke-dasharray:none;stroke-dashoffset:0;stroke-opacity:1" d="M-346.265 531.043A145.714 145.714 0 0 1-537.297 473.6a145.714 145.714 0 0 1 44.026-193.155 145.714 145.714 0 0 0-8.011 4.105 145.714 145.714 0 0 0-53.335 199.05 145.714 145.714 0 0 0 199.049 53.333 145.714 145.714 0 0 0 9.303-5.89z" transform="rotate(120 -472.04 285.252)"/><path d="M-327.082 516.269a142.5 145.714 60 0 1-189.43-54.67 142.5 145.714 60 0 1 45.628-190.38 142.5 145.714 60 0 0-8.007 4.114A142.5 145.714 60 0 0-533.833 471.6a142.5 145.714 60 0 0 197.442 50.55 142.5 145.714 60 0 0 9.309-5.881z" style="opacity:1;fill:#fff;fill-opacity:1;stroke:none;stroke-width:4;stroke-linecap:round;stroke-linejoin:bevel;stroke-miterlimit:4;stroke-dasharray:none;stroke-dashoffset:0;stroke-opacity:1" transform="rotate(120 -472.04 285.252)"/></g><g style="fill:#fff"><path style="opacity:1;fill:#fff;fill-opacity:1;stroke:none;stroke-width:4;stroke-linecap:round;stroke-linejoin:bevel;stroke-miterlimit:4;stroke-dasharray:none;stroke-dashoffset:0;stroke-opacity:1" d="M-346.265 531.043A145.714 145.714 0 0 1-537.297 473.6a145.714 145.714 0 0 1 44.026-193.155 145.714 145.714 0 0 0-8.011 4.105 145.714 145.714 0 0 0-53.335 199.05 145.714 145.714 0 0 0 199.049 53.333 145.714 145.714 0 0 0 9.303-5.89z" transform="rotate(180 -468.692 282.495)"/><path d="M-327.082 516.269a142.5 145.714 60 0 1-189.43-54.67 142.5 145.714 60 0 1 45.628-190.38 142.5 145.714 60 0 0-8.007 4.114A142.5 145.714 60 0 0-533.833 471.6a142.5 145.714 60 0 0 197.442 50.55 142.5 145.714 60 0 0 9.309-5.881z" style="opacity:1;fill:#fff;fill-opacity:1;stroke:none;stroke-width:4;stroke-linecap:round;stroke-linejoin:bevel;stroke-miterlimit:4;stroke-dasharray:none;stroke-dashoffset:0;stroke-opacity:1" transform="rotate(180 -468.692 282.495)"/></g><g style="fill:#fff"><path d="M-346.265 531.043A145.714 145.714 0 0 1-537.297 473.6a145.714 145.714 0 0 1 44.026-193.155 145.714 145.714 0 0 0-8.011 4.105 145.714 145.714 0 0 0-53.335 199.05 145.714 145.714 0 0 0 199.049 53.333 145.714 145.714 0 0 0 9.303-5.89z" style="opacity:1;fill:#fff;fill-opacity:1;stroke:none;stroke-width:4;stroke-linecap:round;stroke-linejoin:bevel;stroke-miterlimit:4;stroke-dasharray:none;stroke-dashoffset:0;stroke-opacity:1" transform="rotate(60 -478.738 290.767)"/><path style="opacity:1;fill:#fff;fill-opacity:1;stroke:none;stroke-width:4;stroke-linecap:round;stroke-linejoin:bevel;stroke-miterlimit:4;stroke-dasharray:none;stroke-dashoffset:0;stroke-opacity:1" d="M-327.082 516.269a142.5 145.714 60 0 1-189.43-54.67 142.5 145.714 60 0 1 45.628-190.38 142.5 145.714 60 0 0-8.007 4.114A142.5 145.714 60 0 0-533.833 471.6a142.5 145.714 60 0 0 197.442 50.55 142.5 145.714 60 0 0 9.309-5.881z" transform="rotate(60 -478.738 290.767)"/></g><g style="fill:#fff"><path style="opacity:1;fill:#fff;fill-opacity:1;stroke:none;stroke-width:4;stroke-linecap:round;stroke-linejoin:bevel;stroke-miterlimit:4;stroke-dasharray:none;stroke-dashoffset:0;stroke-opacity:1" d="M-346.265 531.043A145.714 145.714 0 0 1-537.297 473.6a145.714 145.714 0 0 1 44.026-193.155 145.714 145.714 0 0 0-8.011 4.105 145.714 145.714 0 0 0-53.335 199.05 145.714 145.714 0 0 0 199.049 53.333 145.714 145.714 0 0 0 9.303-5.89z" transform="rotate(-60 -458.646 274.223)"/><path d="M-327.082 516.269a142.5 145.714 60 0 1-189.43-54.67 142.5 145.714 60 0 1 45.628-190.38 142.5 145.714 60 0 0-8.007 4.114A142.5 145.714 60 0 0-533.833 471.6a142.5 145.714 60 0 0 197.442 50.55 142.5 145.714 60 0 0 9.309-5.881z" style="opacity:1;fill:#fff;fill-opacity:1;stroke:none;stroke-width:4;stroke-linecap:round;stroke-linejoin:bevel;stroke-miterlimit:4;stroke-dasharray:none;stroke-dashoffset:0;stroke-opacity:1" transform="rotate(-60 -458.646 274.223)"/></g></g></g></svg>